<?xml version="1.0" encoding="UTF-8"?>
<svg version="1.1" xmlns="http://www.w3.org/2000/svg" width="32" height="32">
<path d="M0 0 C10.56 0 21.12 0 32 0 C32 10.56 32 21.12 32 32 C21.44 32 10.88 32 0 32 C0 21.44 0 10.88 0 0 Z " fill="#0B1020" transform="translate(0,0)"/>
<path d="M0 0 C3.96 0 7.92 0 12 0 C12.33 0.66 12.66 1.32 13 2 C11.2984375 2.7734375 11.2984375 2.7734375 9.5625 3.5625 C7.60110246 4.57958149 7.60110246 4.57958149 6 6 C4.9434891 9.63147485 4.9434891 9.63147485 5 13 C5.68449219 13.24492187 6.36898438 13.48984375 7.07421875 13.7421875 C10.52927929 15.22754063 13.6413857 17.12405162 16.8125 19.125 C17.40998047 19.49753906 18.00746094 19.87007812 18.62304688 20.25390625 C20.08426251 21.1657048 21.54244585 22.08235976 23 23 C22.67 23.99 22.34 24.98 22 26 C19.9375 26.6875 19.9375 26.6875 18 27 C18 28.32 18 29.64 18 31 C18.66 31.33 19.32 31.66 20 32 C13.4 32 6.8 32 0 32 C0 21.44 0 10.88 0 0 Z " fill="#040A1B" transform="translate(0,0)"/>
<path d="M0 0 C0.33 1.32 0.66 2.64 1 4 C0.360625 4.226875 -0.27875 4.45375 -0.9375 4.6875 C-3.27193661 5.85250896 -3.27193661 5.85250896 -3.75 8.625 C-3.8325 9.40875 -3.915 10.1925 -4 11 C-3.30519531 11.26296875 -2.61039063 11.5259375 -1.89453125 11.796875 C1.28590756 13.11883877 4.28424419 14.60830821 7.3125 16.25 C8.38113281 16.81203125 9.44976563 17.3740625 10.55078125 17.953125 C13 20 13 20 13.35546875 23.234375 C13.23816406 24.14703125 13.12085937 25.0596875 13 26 C9.04 27.98 9.04 27.98 5 30 C5 28.68 5 27.36 5 26 C6.32 25.34 7.64 24.68 9 24 C9 23.34 9 22.68 9 22 C7.38054654 20.8849244 7.38054654 20.8849244 5.28125 19.86328125 C4.51425781 19.45013672 3.74726563 19.03699219 2.95703125 18.61132812 C1.32700854 17.74967065 -0.31107992 16.90309162 -1.95703125 16.07226562 C-4.1925663 14.84929645 -6.11843796 13.72029345 -8 12 C-8.78125 8.3515625 -8.78125 8.3515625 -8 5 C-6.25 3.22265625 -6.25 3.22265625 -4 2.0625 C-3.2575 1.66160156 -2.515 1.26070313 -1.75 0.84765625 C-1.1725 0.56792969 -0.595 0.28820312 0 0 Z " fill="#C2A058" transform="translate(13,1)"/>
<path d="M0 0 C3.63 1.98 7.26 3.96 11 6 C11 7.98 11 9.96 11 12 C7.04 13.98 7.04 13.98 3 16 C3 14.68 3 13.36 3 12 C4.32 11.34 5.64 10.68 7 10 C7 9.34 7 8.68 7 8 C6.030625 7.38125 5.06125 6.7625 4.0625 6.125 C1 4 1 4 0 0 Z " fill="#D8B666" transform="translate(15,15)"/>
<path d="M0 0 C1.98 0.99 1.98 0.99 4 2 C4 4.97 4 7.94 4 11 C2.68 10.34 1.36 9.68 0 9 C0 6.03 0 3.06 0 0 Z " fill="#A27E39" transform="translate(5,16)"/>
<path d="M0 0 C0.99 0.33 1.98 0.66 3 1 C3 4.96 3 8.92 3 13 C2.01 12.67 1.02 12.34 0 12 C0 8.04 0 4.08 0 0 Z " fill="#F3DA83" transform="translate(23,5)"/>
<path d="M0 0 C0.99 0.99 1.98 1.98 3 3 C-0.465 4.485 -0.465 4.485 -4 6 C-4 4.68 -4 3.36 -4 2 C-2.68 1.34 -1.36 0.68 0 0 Z " fill="#BC9A53" transform="translate(22,25)"/>
<path d="M0 0 C0.66 0 1.32 0 2 0 C2 1.65 2 3.3 2 5 C1.01 5.495 1.01 5.495 0 6 C-0.99 5.01 -1.98 4.02 -3 3 C-2.01 2.67 -1.02 2.34 0 2 C0 1.34 0 0.68 0 0 Z " fill="#172657" transform="translate(16,10)"/>
</svg>
